<svg width="57" height="59" viewBox="0 0 57 59" fill="none" xmlns="http://www.w3.org/2000/svg">
<rect x="28.0577" y="9.22168" width="27.1923" height="47.8677" rx="3.25" fill="#FCF9FB" stroke="#062D52" stroke-width="3.5"/>
<path d="M2.56673 9.82302C2.58018 9.09285 3.21404 8.52965 3.94071 8.60221L26.0627 10.811C26.7017 10.8748 27.1885 11.4126 27.1885 12.0548V55.4576C27.1885 56.2302 26.4947 56.8178 25.7327 56.6906L2.84134 52.8695C2.23015 52.7675 1.78595 52.2331 1.79735 51.6136L2.56673 9.82302Z" fill="#FCF9FB" stroke="#062D52" stroke-width="3.5"/>
<path d="M8.76538 4.09555C8.76538 3.25042 9.58662 2.64886 10.3924 2.90376L27.1924 8.21829C27.7121 8.3827 28.0654 8.86496 28.0654 9.41008V54.7438C28.0654 55.589 27.2441 56.1905 26.4384 55.9356L9.63837 50.6211C9.11863 50.4567 8.76538 49.9744 8.76538 49.4293V4.09555Z" fill="#FCF9FB" stroke="#062D52" stroke-width="3.5"/>
<path d="M44.5 11L53.7071 20.2929" stroke="#062D52" stroke-width="3.5"/>
<path d="M43.75 9.5V22" stroke="#062D52" stroke-width="3.5"/>
<line x1="43" y1="20.25" x2="55" y2="20.25" stroke="#062D52" stroke-width="3.5"/>
</svg>
